<?xml version="1.0" encoding="utf-8"?>
<!-- Generator: Adobe Illustrator 19.2.0, SVG Export Plug-In . SVG Version: 6.00 Build 0)  -->
<svg version="1.1" id="Layer_1" xmlns="http://www.w3.org/2000/svg" xmlns:xlink="http://www.w3.org/1999/xlink" x="0px" y="0px"
	 viewBox="0 0 855 244.5" style="enable-background:new 0 0 855 244.5;" xml:space="preserve">
<style type="text/css">
	.st0{display:none;}
	.st1{fill:none;stroke:#000000;stroke-miterlimit:10;}
</style>
<rect x="-214.6" y="-326.7" class="st0" width="1285.6" height="962.4"/>
<path d="M71.2,148.4c-3.8-4.3-6.7-9.5-8.7-15.4c-1.9-5.9-2.9-12.4-2.9-19.4c0-7,1-13.5,3-19.5c2-6,4.9-11.2,8.7-15.5
	c1.3-1.5,2.6-2.8,4.1-4v-8.3H40.7c-0.5,2.5-0.8,5.2-0.8,8c0,1.4,0.1,2.8,0.2,4.3c0.1,1.4,0.3,2.8,0.6,4h15.6v50.2
	c0,3.1-0.5,5.6-1.4,7.3c-0.9,1.7-2.1,3-3.4,3.9c-1.4,0.9-2.9,1.4-4.5,1.6c-1.7,0.2-3.2,0.3-4.7,0.3c-1.2,0-2.4-0.1-3.5-0.4
	c-1.1-0.3-2.2-0.5-3.1-0.7c-1.5,4-2.2,8-2.2,12.1c0,0.7,0,1.4,0.1,2c0,0.6,0.1,1.2,0.2,1.8c2,0.5,4.1,0.9,6.4,1.2
	c2.2,0.3,4.1,0.4,5.6,0.4c4.3,0,8.2-0.5,11.9-1.4c3.6-1,6.8-2.5,9.4-4.7c2.2-1.7,4-3.9,5.4-6.5C71.9,149.2,71.5,148.8,71.2,148.4z"
	/>
<g>
	<path d="M119.7,111.7c3.2-0.5,6.4-0.8,9.4-0.8c3.1,0,6.2,0.3,9.6,0.8v44.8c-4.5,1.6-9.3,2.7-14.2,3.2c-4.9,0.6-9.2,0.8-12.9,0.8
		c-7.7,0-14.4-1.2-20.2-3.5c-5.8-2.3-10.6-5.6-14.4-9.8c-3.8-4.2-6.7-9.2-8.7-14.9c-1.9-5.8-2.9-12-2.9-18.8c0-6.8,1-13.1,3-18.8
		c2-5.8,4.9-10.8,8.7-15c3.8-4.2,8.5-7.5,14-9.9c5.6-2.4,11.9-3.6,19-3.6c4.2,0,8.1,0.3,11.7,0.8c3.6,0.5,7.4,1.6,11.3,3.2
		c-0.2,2.5-0.7,5-1.6,7.4c-0.9,2.4-1.8,4.8-2.9,7.3c-3.1-1-5.8-1.7-8.1-2.2c-2.4-0.4-5.2-0.6-8.4-0.6c-8.4,0-14.8,2.6-19.3,7.9
		c-4.5,5.3-6.8,13.1-6.8,23.5c0,10.4,2.2,18.2,6.7,23.3c4.5,5.1,11,7.7,19.7,7.7c1.5,0,2.8-0.1,4-0.3c1.2-0.2,2.2-0.3,3.2-0.5
		L119.7,111.7L119.7,111.7z"/>
</g>
<line class="st1" x1="177.1" y1="117" x2="809.5" y2="117"/>
<line class="st1" x1="532.3" y1="133.7" x2="514.3" y2="192.3"/>
<line class="st1" x1="255.3" y1="133.7" x2="237.3" y2="192.3"/>
<g>
	<g>
		<path d="M181.1,165v-22.6c0.2,0,0.5-0.1,0.9-0.1s0.7,0,0.9,0c0.3,0,0.6,0,0.9,0c0.3,0,0.6,0,0.8,0.1v22.1c0,2.1,0.2,4,0.5,5.4
			s0.9,2.7,1.6,3.6c0.7,0.9,1.7,1.6,2.8,2.1c1.1,0.4,2.5,0.6,4,0.6c3.1,0,5.4-0.9,6.8-2.7s2.2-4.8,2.2-9.1v-22.1
			c0.2,0,0.5-0.1,0.8-0.1s0.6,0,0.9,0c0.3,0,0.6,0,0.9,0s0.6,0,0.9,0.1V165c0,4.9-1,8.6-3,11s-5.2,3.7-9.5,3.7
			c-4.3,0-7.5-1.2-9.5-3.7C182.1,173.5,181.1,169.9,181.1,165z"/>
		<path d="M215.9,179v-36.7c0.2,0,0.5-0.1,0.9-0.1s0.7,0,0.9,0c0.3,0,0.6,0,0.9,0s0.6,0,0.8,0.1V179c-0.2,0-0.5,0.1-0.8,0.1
			s-0.6,0-0.9,0c-0.3,0-0.7,0-1,0C216.4,179.1,216.1,179.1,215.9,179z"/>
	</g>
</g>
<g>
	<g>
		<path d="M273.5,179v-36.7c0.5-0.1,1.1-0.1,1.8-0.2c0.7-0.1,1.4-0.1,2.2-0.2c0.8-0.1,1.6-0.1,2.4-0.1c0.8,0,1.5,0,2.1,0
			c3.2,0,6,0.4,8.4,1.3c2.4,0.9,4.3,2.1,5.9,3.7s2.7,3.6,3.4,5.9c0.7,2.3,1.1,5,1.1,7.9c0,12.7-6.3,19-18.8,19c-0.7,0-1.5,0-2.3-0.1
			c-0.8,0-1.6-0.1-2.4-0.1c-0.8-0.1-1.5-0.1-2.2-0.2C274.5,179.2,273.9,179.1,273.5,179z M277,176c0.6,0.1,1.3,0.1,2.2,0.2
			c0.8,0.1,1.7,0.1,2.6,0.1c2.3,0,4.5-0.3,6.3-0.8s3.5-1.4,4.8-2.6c1.3-1.2,2.3-2.8,3.1-4.9c0.7-2,1.1-4.5,1.1-7.6
			c0-5.3-1.4-9.1-4.1-11.6c-2.7-2.5-6.5-3.7-11.2-3.7c-0.8,0-1.6,0-2.5,0c-0.9,0-1.6,0.1-2.2,0.2V176z"/>
		<path d="M309.1,179v-36.7h19.6c0,0.2,0.1,0.4,0.1,0.7c0,0.3,0,0.6,0,0.8c0,0.2,0,0.5,0,0.8c0,0.3,0,0.6-0.1,0.8h-16.1V158h12.9
			c0,0.2,0.1,0.4,0.1,0.7c0,0.3,0,0.6,0,0.9c0,0.2,0,0.5,0,0.8c0,0.3,0,0.6-0.1,0.8h-12.9v14.6h16.6c0,0.2,0.1,0.4,0.1,0.7
			c0,0.3,0,0.6,0,0.8c0,0.2,0,0.5,0,0.8c0,0.3,0,0.6-0.1,0.8L309.1,179L309.1,179z"/>
		<path d="M334.3,178.2c0.1-0.5,0.2-1.1,0.4-1.7c0.2-0.6,0.4-1.1,0.6-1.6c0.5,0.1,1,0.3,1.5,0.4c0.5,0.1,1.1,0.3,1.7,0.5
			c0.6,0.2,1.3,0.3,2.1,0.4s1.7,0.2,2.7,0.2c1.6,0,3-0.2,4.2-0.6c1.2-0.4,2.1-0.9,2.9-1.6c0.8-0.7,1.3-1.4,1.7-2.4
			c0.4-0.9,0.6-1.9,0.6-3c0-1-0.1-1.9-0.4-2.6s-0.7-1.4-1.3-2c-0.6-0.6-1.5-1.2-2.6-1.8c-1.1-0.6-2.5-1.2-4.2-1.8
			c-1.2-0.4-2.3-0.9-3.4-1.4c-1.1-0.5-2-1.1-2.8-1.9c-0.8-0.7-1.5-1.6-1.9-2.6c-0.5-1-0.7-2.3-0.7-3.8c0-2.8,1-5,3-6.7
			c2-1.7,4.9-2.6,8.7-2.6c0.7,0,1.5,0,2.3,0.1c0.8,0.1,1.5,0.1,2.1,0.2s1.3,0.2,1.8,0.4c0.6,0.1,1,0.3,1.4,0.4
			c-0.1,0.5-0.2,1-0.3,1.6c-0.1,0.5-0.3,1-0.4,1.5c-0.8-0.3-1.9-0.5-3.1-0.7s-2.5-0.3-3.8-0.3c-2.8,0-4.9,0.6-6.1,1.7
			c-1.2,1.2-1.8,2.6-1.8,4.4c0,0.9,0.2,1.7,0.6,2.4s0.9,1.3,1.6,1.8c0.7,0.5,1.5,1,2.4,1.4c0.9,0.4,1.9,0.8,3,1.3
			c1.4,0.6,2.8,1.2,4,1.8s2.3,1.3,3.2,2.1s1.6,1.8,2.1,2.9c0.5,1.1,0.8,2.4,0.8,4c0,1.8-0.3,3.3-0.9,4.7c-0.6,1.4-1.5,2.5-2.7,3.5
			c-1.2,0.9-2.6,1.6-4.2,2.1s-3.5,0.7-5.6,0.7c-2,0-3.7-0.2-5-0.5S335.5,178.5,334.3,178.2z"/>
		<path d="M364.2,179v-36.7c0.2,0,0.5-0.1,0.9-0.1s0.7,0,0.9,0c0.3,0,0.6,0,0.9,0s0.6,0,0.8,0.1V179c-0.2,0-0.5,0.1-0.8,0.1
			s-0.6,0-0.9,0c-0.3,0-0.7,0-1,0C364.7,179.1,364.4,179.1,364.2,179z"/>
		<path d="M376.2,161.1c0-3.1,0.4-5.8,1.3-8.2c0.9-2.4,2-4.4,3.5-6.1c1.5-1.7,3.3-2.9,5.4-3.8c2.1-0.9,4.3-1.3,6.7-1.3
			c2.1,0,3.9,0.2,5.3,0.5c1.4,0.3,2.6,0.6,3.5,0.8c-0.1,0.6-0.2,1.1-0.3,1.6c-0.1,0.4-0.3,1-0.5,1.5c-0.8-0.2-1.9-0.5-3.2-0.8
			s-2.9-0.5-4.8-0.5c-1.9,0-3.7,0.4-5.3,1.1s-3,1.8-4.1,3.2c-1.2,1.4-2.1,3.1-2.7,5.1c-0.7,2-1,4.3-1,6.9c0,2.6,0.4,4.9,1.1,6.8
			c0.7,1.9,1.7,3.5,2.9,4.8c1.2,1.3,2.7,2.2,4.3,2.8s3.4,0.9,5.3,0.9c1.5,0,2.8-0.1,3.9-0.2c1-0.1,1.9-0.3,2.7-0.6v-15.5
			c0.2,0,0.5-0.1,0.9-0.1c0.3,0,0.6,0,0.9,0c0.3,0,0.6,0,0.9,0c0.3,0,0.6,0,0.8,0.1V178c-0.6,0.3-1.3,0.5-2.1,0.7s-1.6,0.4-2.6,0.5
			c-0.9,0.1-1.8,0.2-2.8,0.3c-0.9,0.1-1.9,0.1-2.8,0.1c-2.4,0-4.7-0.4-6.8-1.2c-2.1-0.8-3.9-2-5.5-3.5c-1.5-1.6-2.7-3.5-3.6-5.8
			C376.6,166.9,376.2,164.2,376.2,161.1z"/>
		<path d="M413.2,179v-36.7c0.2,0,0.5-0.1,0.9-0.1c0.4,0,0.7,0,1,0c0.3,0,0.6,0,0.9,0c0.4,0,0.7,0,0.9,0.1l17.6,30.7v-30.7
			c0.2,0,0.5-0.1,0.8-0.1c0.3,0,0.6,0,0.9,0c0.3,0,0.6,0,0.9,0c0.3,0,0.6,0,0.8,0.1V179c-0.2,0-0.5,0.1-0.9,0.1c-0.4,0-0.7,0-1,0
			c-0.3,0-0.6,0-0.9,0c-0.4,0-0.7,0-0.9-0.1l-17.6-30.5V179c-0.2,0-0.5,0.1-0.8,0.1c-0.3,0-0.6,0-0.9,0c-0.3,0-0.6,0-0.9,0
			S413.4,179.1,413.2,179z"/>
		<path d="M448.3,179v-36.7h19.6c0,0.2,0.1,0.4,0.1,0.7c0,0.3,0,0.6,0,0.8c0,0.2,0,0.5,0,0.8c0,0.3,0,0.6-0.1,0.8h-16.1V158h12.9
			c0,0.2,0.1,0.4,0.1,0.7c0,0.3,0,0.6,0,0.9c0,0.2,0,0.5,0,0.8c0,0.3,0,0.6-0.1,0.8h-12.9v14.6h16.6c0,0.2,0.1,0.4,0.1,0.7
			s0,0.6,0,0.8c0,0.2,0,0.5,0,0.8c0,0.3,0,0.6-0.1,0.8L448.3,179L448.3,179z"/>
		<path d="M475.8,179v-36.8c0.7-0.1,1.4-0.1,2-0.2s1.1-0.1,1.6-0.1s1.1-0.1,1.7-0.1s1.3,0,2,0c1.6,0,3.2,0.2,4.8,0.5
			c1.6,0.3,3,0.9,4.3,1.7c1.3,0.8,2.3,1.9,3,3.4c0.8,1.4,1.1,3.2,1.1,5.3c0,1.3-0.2,2.5-0.7,3.6c-0.5,1.1-1.1,2.1-1.9,2.9
			c-0.8,0.9-1.7,1.6-2.7,2.2s-2,1.1-3.1,1.6l-0.4,0.1l11.7,15.8c-0.3,0.1-0.7,0.1-1,0.1c-0.3,0-0.7,0-1,0c-0.3,0-0.7,0-1,0
			s-0.7,0-1-0.1l-12.9-17v-0.2l1.1-0.3c1.2-0.3,2.3-0.7,3.4-1.2s2-1.1,2.9-1.8c0.8-0.7,1.5-1.5,2-2.5c0.5-1,0.8-2.1,0.8-3.4
			c0-2.7-0.8-4.6-2.5-6c-1.6-1.3-3.8-2-6.6-2c-0.7,0-1.4,0-2,0.1c-0.6,0-1.3,0.1-2.2,0.2V179c-0.2,0-0.5,0.1-0.9,0.1s-0.7,0-0.9,0
			c-0.3,0-0.6,0-0.9,0S476,179.1,475.8,179z"/>
	</g>
</g>
<g>
	<g>
		<path d="M544.5,179v-36.7c0.5-0.1,1.1-0.1,1.8-0.2c0.7-0.1,1.4-0.1,2.2-0.2s1.6-0.1,2.4-0.1c0.8,0,1.5,0,2.1,0
			c3.2,0,6,0.4,8.4,1.3c2.4,0.9,4.3,2.1,5.9,3.7c1.5,1.6,2.7,3.6,3.4,5.9c0.7,2.3,1.1,5,1.1,7.9c0,12.7-6.3,19-18.8,19
			c-0.7,0-1.5,0-2.3-0.1c-0.8,0-1.6-0.1-2.4-0.1c-0.8-0.1-1.5-0.1-2.2-0.2C545.5,179.2,544.9,179.1,544.5,179z M548,176
			c0.6,0.1,1.3,0.1,2.2,0.2c0.8,0.1,1.7,0.1,2.6,0.1c2.3,0,4.5-0.3,6.3-0.8c1.9-0.5,3.5-1.4,4.8-2.6c1.3-1.2,2.3-2.8,3.1-4.9
			c0.7-2,1.1-4.5,1.1-7.6c0-5.3-1.4-9.1-4.1-11.6c-2.7-2.5-6.5-3.7-11.2-3.7c-0.8,0-1.6,0-2.5,0c-0.9,0-1.6,0.1-2.2,0.2L548,176
			L548,176z"/>
		<path d="M580.1,179v-36.7h19.6c0,0.2,0.1,0.4,0.1,0.7c0,0.3,0,0.6,0,0.8c0,0.2,0,0.5,0,0.8c0,0.3,0,0.6-0.1,0.8h-16.1V158h12.9
			c0,0.2,0.1,0.4,0.1,0.7c0,0.3,0,0.6,0,0.9c0,0.2,0,0.5,0,0.8c0,0.3,0,0.6-0.1,0.8h-12.9v14.6h16.6c0,0.2,0.1,0.4,0.1,0.7
			c0,0.3,0,0.6,0,0.8c0,0.2,0,0.5,0,0.8c0,0.3,0,0.6-0.1,0.8L580.1,179L580.1,179z"/>
		<path d="M604,142.4c0.2,0,0.5-0.1,0.9-0.1s0.8,0,1.1,0c0.3,0,0.7,0,1.1,0s0.7,0,1,0.1l10.2,33.2l10.1-33.2c0.3,0,0.6-0.1,0.9-0.1
			c0.4,0,0.7,0,1,0c0.3,0,0.7,0,1.1,0c0.4,0,0.7,0,0.9,0.1l-12,36.7c-0.2,0-0.6,0.1-1,0.1c-0.4,0-0.8,0-1.1,0c-0.3,0-0.7,0-1.1,0
			c-0.4,0-0.7,0-1-0.1L604,142.4z"/>
		<path d="M639.1,179v-36.7h19.6c0,0.2,0.1,0.4,0.1,0.7c0,0.3,0,0.6,0,0.8c0,0.2,0,0.5,0,0.8c0,0.3,0,0.6-0.1,0.8h-16.1V158h12.9
			c0,0.2,0.1,0.4,0.1,0.7c0,0.3,0,0.6,0,0.9c0,0.2,0,0.5,0,0.8c0,0.3,0,0.6-0.1,0.8h-12.9v14.6h16.6c0,0.2,0.1,0.4,0.1,0.7
			c0,0.3,0,0.6,0,0.8c0,0.2,0,0.5,0,0.8c0,0.3,0,0.6-0.1,0.8L639.1,179L639.1,179z"/>
		<path d="M666.6,179v-36.7c0.2,0,0.5-0.1,0.8-0.1s0.7,0,1,0c0.3,0,0.6,0,0.9,0c0.3,0,0.6,0,0.8,0.1v33.5h15.7
			c0,0.2,0.1,0.5,0.1,0.8c0,0.3,0,0.6,0,0.9c0,0.3,0,0.5,0,0.8c0,0.3,0,0.5-0.1,0.7L666.6,179L666.6,179z"/>
		<path d="M690,160.7c0-2.8,0.3-5.3,0.9-7.6c0.6-2.3,1.6-4.3,2.8-6s2.8-3,4.7-3.9c1.9-0.9,4.1-1.4,6.7-1.4c2.6,0,4.8,0.5,6.7,1.4
			c1.9,0.9,3.5,2.2,4.7,3.9c1.2,1.7,2.2,3.7,2.8,6c0.6,2.3,0.9,4.9,0.9,7.6c0,2.8-0.3,5.3-0.9,7.6c-0.6,2.3-1.6,4.3-2.8,6
			c-1.2,1.7-2.8,3-4.7,3.9s-4.1,1.4-6.7,1.4s-4.8-0.5-6.7-1.4c-1.9-0.9-3.5-2.2-4.7-3.9s-2.2-3.7-2.8-6
			C690.3,166,690,163.5,690,160.7z M693.7,160.7c0,2.3,0.2,4.4,0.7,6.4c0.5,1.9,1.1,3.6,2.1,5c0.9,1.4,2.1,2.5,3.6,3.2
			c1.4,0.8,3.2,1.2,5.1,1.2c2,0,3.7-0.4,5.1-1.2c1.4-0.8,2.6-1.9,3.6-3.2s1.7-3.1,2.1-5c0.5-1.9,0.7-4.1,0.7-6.4
			c0-2.3-0.2-4.4-0.7-6.4c-0.5-1.9-1.2-3.6-2.1-5c-1-1.4-2.1-2.4-3.6-3.2s-3.1-1.1-5.1-1.1c-2,0-3.7,0.4-5.1,1.1
			c-1.4,0.8-2.6,1.8-3.6,3.2c-0.9,1.4-1.6,3-2.1,5C693.9,156.2,693.7,158.4,693.7,160.7z"/>
		<path d="M728.7,179v-36.7c0.3,0,0.8-0.1,1.4-0.2s1.3-0.1,2-0.2s1.5-0.1,2.2-0.1c0.8-0.1,1.5-0.1,2.1-0.1c2,0,3.8,0.2,5.4,0.6
			c1.6,0.4,3,1.1,4.2,1.9c1.2,0.9,2.1,2,2.7,3.4c0.6,1.4,1,3.1,1,5.1c0,2.1-0.4,4-1.1,5.5c-0.7,1.5-1.7,2.8-3,3.7
			c-1.2,0.9-2.7,1.6-4.3,2.1c-1.6,0.4-3.4,0.7-5.1,0.7c-0.8,0-1.5,0-2-0.1c-0.6,0-1.2-0.1-2-0.2V179c-0.2,0-0.5,0.1-0.8,0.1
			s-0.6,0-0.9,0c-0.3,0-0.7,0-1,0C729.2,179.1,728.9,179.1,728.7,179z M732.2,161.4c0.3,0,0.6,0.1,0.9,0.1s0.5,0,0.8,0.1
			c0.3,0,0.5,0,0.9,0.1c0.3,0,0.7,0,1.3,0c1.2,0,2.4-0.1,3.6-0.3c1.2-0.2,2.3-0.6,3.2-1.3c1-0.6,1.8-1.5,2.3-2.7s0.9-2.6,0.9-4.5
			c0-1.5-0.2-2.7-0.7-3.7s-1.1-1.8-2-2.4c-0.8-0.6-1.9-1-3.1-1.3c-1.2-0.3-2.6-0.4-4.1-0.4c-0.9,0-1.7,0-2.3,0.1
			c-0.7,0.1-1.2,0.1-1.7,0.2L732.2,161.4L732.2,161.4z"/>
		<path d="M757,179v-36.7h19.6c0,0.2,0.1,0.4,0.1,0.7c0,0.3,0,0.6,0,0.8c0,0.2,0,0.5,0,0.8s0,0.6-0.1,0.8h-16.1V158h12.9
			c0,0.2,0.1,0.4,0.1,0.7c0,0.3,0,0.6,0,0.9c0,0.2,0,0.5,0,0.8c0,0.3,0,0.6-0.1,0.8h-12.9v14.6h16.6c0,0.2,0.1,0.4,0.1,0.7
			c0,0.3,0,0.6,0,0.8c0,0.2,0,0.5,0,0.8c0,0.3,0,0.6-0.1,0.8L757,179L757,179z"/>
		<path d="M784.5,179v-36.8c0.7-0.1,1.4-0.1,2-0.2c0.6-0.1,1.1-0.1,1.6-0.1s1.1-0.1,1.7-0.1c0.6,0,1.3,0,2,0c1.6,0,3.2,0.2,4.8,0.5
			c1.6,0.3,3,0.9,4.3,1.7c1.3,0.8,2.3,1.9,3,3.4c0.8,1.4,1.1,3.2,1.1,5.3c0,1.3-0.2,2.5-0.7,3.6s-1.1,2.1-1.9,2.9
			c-0.8,0.9-1.7,1.6-2.7,2.2c-1,0.6-2,1.1-3.1,1.6l-0.4,0.1L808,179c-0.3,0.1-0.7,0.1-1,0.1s-0.7,0-1,0c-0.3,0-0.7,0-1,0
			c-0.3,0-0.7,0-1-0.1l-12.9-17v-0.2l1.1-0.3c1.2-0.3,2.3-0.7,3.4-1.2c1.1-0.5,2-1.1,2.9-1.8c0.8-0.7,1.5-1.5,2-2.5
			c0.5-1,0.8-2.1,0.8-3.4c0-2.7-0.8-4.6-2.5-6c-1.6-1.3-3.8-2-6.6-2c-0.7,0-1.4,0-2,0.1c-0.6,0-1.3,0.1-2.2,0.2V179
			c-0.2,0-0.5,0.1-0.9,0.1c-0.3,0-0.7,0-0.9,0c-0.3,0-0.6,0-0.9,0C785,179.1,784.7,179.1,784.5,179z"/>
	</g>
</g>
<g>
	<path d="M178.4,100.8c0.1-1.3,0.5-2.7,1.2-4.3c0.6,0.2,1.3,0.4,2.1,0.5c0.8,0.2,1.7,0.3,2.6,0.3c0.8,0,1.7-0.1,2.6-0.3
		c0.9-0.2,1.7-0.5,2.4-1c0.8-0.5,1.4-1.2,1.8-2.1c0.5-0.9,0.7-2.2,0.7-3.7V54.7h-9.2c0-0.2-0.1-0.5-0.1-0.9s0-0.8,0-1.1
		c0-0.3,0-0.7,0-1.1c0-0.4,0.1-0.8,0.1-1h14v40.3c0,2.1-0.3,3.8-1,5.2c-0.7,1.4-1.5,2.5-2.7,3.4c-1.1,0.8-2.4,1.4-3.8,1.8
		c-1.4,0.4-2.8,0.5-4.3,0.5c-1.4,0-2.6-0.1-3.7-0.3C180.1,101.2,179.2,101,178.4,100.8z"/>
	<path d="M224.3,100.9V50.5h26.9c0,0.3,0.1,0.6,0.1,1c0,0.4,0,0.8,0,1.2c0,0.3,0,0.7,0,1.1c0,0.4-0.1,0.8-0.1,1.1h-22.1v17h17.8
		c0,0.3,0.1,0.6,0.1,1c0,0.4,0,0.8,0,1.2c0,0.3,0,0.7,0,1.1c0,0.4-0.1,0.8-0.1,1.1h-17.8v20.1h22.8c0,0.3,0.1,0.6,0.1,1
		c0,0.4,0,0.8,0,1.1c0,0.3,0,0.7,0,1.2c0,0.5-0.1,0.8-0.1,1.1L224.3,100.9L224.3,100.9z"/>
	<path d="M276.1,100.9V50.5h24.7c0,0.3,0.1,0.6,0.1,1c0,0.4,0,0.8,0,1.2c0,0.3,0,0.7,0,1.1c0,0.4-0.1,0.8-0.1,1.1h-19.9v17h17.2
		c0,0.3,0.1,0.6,0.1,1c0,0.4,0,0.8,0,1.2c0,0.3,0,0.7,0,1.1c0,0.4-0.1,0.8-0.1,1.1h-17.2v24.5c-0.3,0-0.7,0.1-1.1,0.1
		c-0.4,0-0.8,0-1.2,0c-0.5,0-0.9,0-1.4,0C276.7,100.9,276.4,100.9,276.1,100.9z"/>
	<path d="M325.2,100.9V50.5h24.7c0,0.3,0.1,0.6,0.1,1c0,0.4,0,0.8,0,1.2c0,0.3,0,0.7,0,1.1c0,0.4-0.1,0.8-0.1,1.1h-19.9v17h17.2
		c0,0.3,0.1,0.6,0.1,1c0,0.4,0,0.8,0,1.2c0,0.3,0,0.7,0,1.1c0,0.4-0.1,0.8-0.1,1.1h-17.2v24.5c-0.3,0-0.7,0.1-1.1,0.1
		c-0.4,0-0.8,0-1.2,0c-0.5,0-0.9,0-1.4,0C325.9,100.9,325.5,100.9,325.2,100.9z"/>
	<path d="M370.9,75.8c0-3.7,0.5-7.2,1.6-10.4c1.1-3.2,2.6-6,4.7-8.3c2-2.3,4.5-4.1,7.5-5.5c3-1.3,6.3-2,10.1-2
		c2.2,0,4.3,0.1,6.2,0.4c1.9,0.3,3.9,0.9,6,1.7c-0.1,1.4-0.4,2.8-0.8,4.1c-0.5,1.3-1,2.7-1.5,4c-1.6-0.6-3.1-1-4.3-1.2
		c-1.3-0.2-2.7-0.3-4.4-0.3c-4.5,0-7.9,1.5-10.3,4.4c-2.4,2.9-3.6,7.3-3.6,13s1.2,10,3.6,12.9c2.4,2.8,5.9,4.2,10.5,4.2
		c0.8,0,1.5-0.1,2.1-0.2c0.6-0.1,1.2-0.2,1.7-0.3V74.7c1.7-0.3,3.4-0.4,5-0.4s3.3,0.1,5.1,0.4v24.7c-2.4,0.9-4.9,1.5-7.6,1.8
		c-2.6,0.3-4.9,0.5-6.9,0.5c-4.1,0-7.7-0.6-10.8-1.9c-3.1-1.3-5.6-3.1-7.7-5.4s-3.6-5-4.6-8.2C371.4,83,370.9,79.6,370.9,75.8z"/>
	<path d="M432.9,100.9V50.5c1.7-0.3,3.4-0.4,5.1-0.4s3.4,0.1,5.1,0.4v50.3c-1.8,0.3-3.5,0.4-5.1,0.4
		C436.4,101.3,434.7,101.1,432.9,100.9z"/>
	<path d="M467,100.9V50.5c1.6-0.3,3.1-0.4,4.5-0.4c1.5,0,3.1,0.1,4.7,0.4l19.5,32.1V50.5c1.8-0.3,3.6-0.4,5.3-0.4
		c1.6,0,3.1,0.1,4.6,0.4v50.3c-1.6,0.3-3.1,0.4-4.5,0.4c-1.4,0-3-0.1-4.7-0.4l-19.6-32v32c-1.6,0.3-3.3,0.4-5,0.4
		S468.6,101.1,467,100.9z"/>
	<path d="M525.3,99.2c0.1-1.3,0.4-2.7,0.8-4.2s0.8-2.9,1.3-4.4c1.9,0.8,3.7,1.4,5.4,1.8c1.7,0.4,3.5,0.6,5.4,0.6
		c2.9,0,5.3-0.6,6.9-1.6c1.7-1.1,2.5-2.8,2.5-5c0-1.1-0.2-2.1-0.6-2.8s-0.9-1.4-1.5-1.9c-0.6-0.5-1.3-0.9-2.1-1.3
		c-0.8-0.4-1.6-0.7-2.4-1l-4.3-1.6c-1.5-0.6-2.9-1.3-4.2-2c-1.2-0.7-2.3-1.6-3.1-2.6c-0.8-1-1.5-2.2-2-3.6c-0.5-1.4-0.7-3.1-0.7-5.1
		c0-2.4,0.4-4.5,1.2-6.3c0.8-1.8,1.9-3.4,3.4-4.6c1.5-1.2,3.2-2.2,5.3-2.8s4.4-0.9,6.9-0.9c2.4,0,4.6,0.2,6.7,0.6
		c2.1,0.4,4.3,1,6.6,1.8c-0.3,2.7-1,5.4-2.2,8c-0.7-0.3-1.4-0.6-2.2-0.8c-0.7-0.3-1.5-0.5-2.3-0.7s-1.8-0.3-2.8-0.4
		s-2.2-0.2-3.5-0.2c-0.8,0-1.6,0.1-2.4,0.2c-0.8,0.1-1.6,0.4-2.2,0.8c-0.7,0.4-1.2,0.9-1.6,1.6c-0.4,0.7-0.6,1.7-0.6,2.8
		c0,0.9,0.2,1.7,0.5,2.4c0.3,0.6,0.8,1.2,1.3,1.6c0.6,0.4,1.2,0.8,1.9,1.1c0.7,0.3,1.4,0.6,2.1,0.9l4.2,1.6c1.8,0.7,3.4,1.4,4.9,2.2
		c1.5,0.7,2.7,1.7,3.7,2.8c1,1.1,1.8,2.4,2.4,4c0.6,1.6,0.8,3.5,0.8,5.8c0,2.4-0.4,4.5-1.3,6.4c-0.9,1.9-2.1,3.6-3.8,5
		c-1.6,1.4-3.7,2.5-6.1,3.3s-5.2,1.2-8.4,1.2c-1.5,0-2.9-0.1-4-0.2c-1.2-0.1-2.3-0.3-3.4-0.5c-1.1-0.2-2.1-0.5-3.2-0.8
		C527.6,100,526.5,99.6,525.3,99.2z"/>
	<path d="M580.4,100.9V50.4c1.5-0.2,3.2-0.4,5.2-0.5c1.9-0.1,4.4-0.2,7.3-0.2c2.6,0,5,0.2,7.3,0.6c2.3,0.4,4.3,1.1,6,2.1
		s3.1,2.4,4.1,4c1,1.7,1.5,3.8,1.5,6.3c0,1.5-0.2,2.9-0.7,4.2s-1.1,2.4-1.8,3.4c-0.8,1-1.6,1.8-2.5,2.4c-0.9,0.6-1.9,1-2.9,1.1
		c1,0.1,2.2,0.5,3.5,1c1.3,0.5,2.5,1.3,3.6,2.3c1.1,1,2,2.3,2.7,3.8c0.7,1.6,1.1,3.5,1.1,5.7c0,3-0.6,5.5-1.7,7.5
		c-1.1,1.9-2.6,3.5-4.6,4.6c-1.9,1.1-4.1,1.9-6.6,2.3c-2.5,0.4-5.2,0.6-7.9,0.6c-2.1,0-4.2-0.1-6.3-0.2
		C585.4,101.4,583,101.2,580.4,100.9z M590.5,71h3.1c1.2,0,2.2-0.1,3.3-0.3c1-0.2,1.9-0.6,2.6-1.1c0.7-0.5,1.3-1.3,1.7-2.2
		s0.6-2.1,0.6-3.5c0-1.4-0.2-2.5-0.7-3.4c-0.5-0.9-1.1-1.6-1.9-2.1s-1.6-0.8-2.6-1s-1.9-0.2-2.8-0.2c-1.3,0-2.4,0.1-3.3,0.2
		L590.5,71L590.5,71z M590.5,93.2c0.7,0.1,1.4,0.2,2.3,0.2c0.9,0,1.7,0.1,2.4,0.1c1,0,2-0.1,3.1-0.3c1.1-0.2,2.1-0.5,3-1.1
		c0.9-0.5,1.7-1.3,2.3-2.3s0.9-2.2,0.9-3.7c0-1.4-0.2-2.6-0.7-3.6c-0.5-1-1.1-1.7-2-2.3c-0.9-0.6-1.9-1-3.1-1.2
		c-1.2-0.2-2.5-0.3-4-0.3h-4.2L590.5,93.2L590.5,93.2z"/>
	<path d="M636.3,78.8V50.5c0.9-0.1,1.8-0.2,2.6-0.3c0.8,0,1.7-0.1,2.6-0.1c0.8,0,1.6,0,2.4,0.1c0.8,0,1.7,0.1,2.6,0.3v26.2
		c0,2.9,0.1,5.3,0.3,7.3c0.2,2,0.6,3.7,1.3,5.1s1.5,2.3,2.6,3c1.1,0.6,2.6,1,4.4,1c1.8,0,3.3-0.3,4.4-1c1.1-0.6,2-1.6,2.6-3
		c0.6-1.3,1.1-3,1.3-5.1c0.2-2,0.3-4.5,0.3-7.3V50.5c0.9-0.1,1.8-0.2,2.6-0.3c0.8,0,1.7-0.1,2.4-0.1c0.8,0,1.7,0,2.5,0.1
		c0.8,0,1.7,0.1,2.6,0.3v28.3c0,3.4-0.3,6.5-0.8,9.3s-1.6,5.2-3,7.2c-1.4,2-3.4,3.6-5.8,4.7c-2.4,1.1-5.5,1.7-9.2,1.7
		c-3.7,0-6.8-0.6-9.2-1.7c-2.4-1.1-4.4-2.7-5.8-4.7c-1.4-2-2.4-4.4-3-7.2C636.6,85.3,636.3,82.2,636.3,78.8z"/>
	<path d="M698.1,100.9V50.5c2.1-0.2,4-0.4,5.8-0.6c1.8-0.2,3.8-0.2,6-0.2c2.6,0,5.2,0.2,7.7,0.7c2.5,0.5,4.8,1.3,6.8,2.5
		c2,1.2,3.7,2.8,4.9,4.8c1.2,2,1.9,4.6,1.9,7.8c0,1.9-0.2,3.5-0.7,4.9c-0.5,1.4-1.1,2.7-1.8,3.7c-0.7,1.1-1.5,2-2.4,2.8
		s-1.7,1.4-2.5,1.9l-1.2,0.8l12.4,21.3c-0.9,0.1-1.9,0.2-2.9,0.3s-2.1,0.1-3.1,0.1c-1.8,0-3.6-0.1-5.4-0.4l-13.3-23.4l1.7-0.9
		c0.7-0.3,1.5-0.7,2.4-1.2c0.9-0.5,1.8-1.2,2.7-1.9c0.9-0.8,1.6-1.7,2.2-2.8s0.9-2.4,0.9-3.9c0-2.9-0.8-5.1-2.5-6.5
		c-1.7-1.4-3.9-2.1-6.5-2.1c-1,0-2,0.1-2.8,0.2v42.5c-0.8,0.1-1.7,0.2-2.5,0.2c-0.8,0.1-1.7,0.1-2.5,0.1c-0.8,0-1.6,0-2.5-0.1
		C699.9,101.1,699,101,698.1,100.9z"/>
	<path d="M753,75.8c0-3.7,0.5-7.2,1.6-10.4c1.1-3.2,2.6-6,4.7-8.3c2-2.3,4.5-4.1,7.5-5.5c3-1.3,6.3-2,10.1-2c2.2,0,4.3,0.1,6.2,0.4
		s3.9,0.9,6,1.7c-0.1,1.4-0.4,2.8-0.8,4.1c-0.5,1.3-1,2.7-1.5,4c-1.6-0.6-3.1-1-4.3-1.2s-2.7-0.3-4.4-0.3c-4.5,0-7.9,1.5-10.3,4.4
		c-2.4,2.9-3.6,7.3-3.6,13s1.2,10,3.6,12.9s5.9,4.2,10.5,4.2c0.8,0,1.5-0.1,2.1-0.2s1.2-0.2,1.7-0.3V74.7c1.7-0.3,3.4-0.4,5-0.4
		c1.6,0,3.3,0.1,5.1,0.4v24.7c-2.4,0.9-4.9,1.5-7.6,1.8c-2.6,0.3-4.9,0.5-6.9,0.5c-4.1,0-7.7-0.6-10.8-1.9c-3.1-1.3-5.6-3.1-7.7-5.4
		s-3.6-5-4.6-8.2C753.5,83,753,79.6,753,75.8z"/>
</g>
</svg>
